<svg xmlns="http://www.w3.org/2000/svg" version="1.1" xmlns:xlink="http://www.w3.org/1999/xlink" xmlns:svgjs="http://svgjs.dev/svgjs" width="1000" height="1000" viewBox="0 0 1000 1000"><rect width="1000" height="1000" fill="#000000"></rect><g transform="matrix(0.7,0,0,0.7,149.57575757575756,282.1265587044535)"><svg viewBox="0 0 396 247" data-background-color="#ffffff" preserveAspectRatio="xMidYMid meet" height="623" width="1000" xmlns="http://www.w3.org/2000/svg" xmlns:xlink="http://www.w3.org/1999/xlink"><g id="tight-bounds" transform="matrix(1,0,0,1,0.2400000000000091,-0.09999999999999432)"><svg viewBox="0 0 395.52 247.2" height="247.2" width="395.52"><g><svg></svg></g><g><svg viewBox="0 0 395.52 247.2" height="247.2" width="395.52"><g transform="matrix(1,0,0,1,139.43456164948452,47.21520000000001)"><svg viewBox="0 0 116.65087670103092 152.76959999999997" height="152.76959999999997" width="116.65087670103092"><g><svg viewBox="0 0 116.65087670103092 152.76959999999997" height="152.76959999999997" width="116.65087670103092"><g><svg viewBox="0 0 116.65087670103092 152.76959999999997" height="152.76959999999997" width="116.65087670103092"><g><svg viewBox="0 0 116.65087670103092 152.76959999999997" height="152.76959999999997" width="116.65087670103092"><g id="textblocktransform"><svg viewBox="0 0 116.65087670103092 152.76959999999997" height="152.76959999999997" width="116.65087670103092" id="textblock"><g><svg viewBox="0 0 116.65087670103092 152.76959999999997" height="152.76959999999997" width="116.65087670103092"><g transform="matrix(1,0,0,1,0,0)"><svg width="116.65087670103092" viewBox="1.7000000476837158 -35.52000045776367 27.779998779296875 36.369998931884766" height="152.76959999999997" data-palette-color="#000000"><path d="M17.9-35.52L17.9-35.52Q21.63-35.52 24.24-34.54 26.85-33.55 29.03-31.75L29.03-31.75 25-26.9Q23.58-28.08 21.85-28.76 20.13-29.45 18.1-29.45L18.1-29.45Q15.93-29.45 14.13-28.21 12.33-26.98 11.25-24.31 10.18-21.65 10.18-17.4L10.18-17.4Q10.18-13.23 11.21-10.59 12.25-7.95 14.08-6.71 15.9-5.48 18.25-5.48L18.25-5.48Q20.85-5.48 22.58-6.45 24.3-7.43 25.75-8.58L25.75-8.58 29.48-3.83Q27.53-1.9 24.68-0.53 21.83 0.85 17.8 0.85L17.8 0.85Q13.1 0.85 9.46-1.24 5.83-3.33 3.76-7.39 1.7-11.45 1.7-17.4L1.7-17.4Q1.7-23.2 3.84-27.25 5.98-31.3 9.65-33.41 13.33-35.52 17.9-35.52Z" opacity="1" transform="matrix(1,0,0,1,0,0)" fill="#ffffff" class="wordmark-text-0" data-fill-palette-color="primary" id="text-0"></path></svg></g></svg></g></svg></g></svg></g></svg></g></svg></g></svg></g><path d="M321.736 41.215L321.736 0 74.536 0 74.536 247.2 321.736 247.2 321.736 205.985 307.959 205.985 307.959 233.423 88.313 233.423 88.313 13.777 307.959 13.777 307.959 41.215Z" fill="#ffffff" stroke="transparent" data-fill-palette-color="primary"></path></svg></g><defs></defs></svg><rect width="395.52" height="247.2" fill="none" stroke="none" visibility="hidden"></rect></g></svg></g></svg>